<?xml version="1.0" encoding="UTF-8"?>
<svg version="1.1" xmlns="http://www.w3.org/2000/svg" viewBox="0 0 760 160" width="760" height="160">
<path d="M0 0 C2.22630777 -0.01186912 4.44981664 -0.06102694 6.67553711 -0.11157227 C8.10065386 -0.12104065 9.52578756 -0.1282737 10.95092773 -0.13305664 C12.2410376 -0.14651123 13.53114746 -0.15996582 14.86035156 -0.17382812 C19.22581211 0.55887206 21.6962399 2.04592896 24.43139648 5.42553711 C26.26752144 8.48979295 27.66205605 11.68585429 29.05249023 14.97241211 C29.47195419 15.92903748 29.89141815 16.88566284 30.32359314 17.87127686 C31.71039269 21.0487464 33.07203835 24.2362398 34.43139648 27.42553711 C35.41157591 29.70112252 36.39221681 31.9765092 37.37329102 34.25170898 C40.43809023 41.3826069 43.46787911 48.5281158 46.49389648 55.67553711 C48.05590453 59.35941359 49.61947758 63.0426252 51.18321228 66.72576904 C52.14571109 68.99347707 53.10730527 71.26156931 54.06788635 73.53009033 C54.71007362 75.04503082 54.71007362 75.04503082 55.36523438 76.59057617 C55.92954918 77.92333588 55.92954918 77.92333588 56.50526428 79.28302002 C57.10948403 80.68082384 57.7503771 82.06349834 58.43139648 83.42553711 C59.75139648 83.42553711 61.07139648 83.42553711 62.43139648 83.42553711 C62.83229492 82.47340332 63.23319336 81.52126953 63.64624023 80.5402832 C64.05015739 79.58102432 64.05015739 79.58102432 64.4622345 78.60238647 C65.07957825 77.13613403 65.69683347 75.66984431 66.31401062 74.20352173 C68.07221927 70.02666742 69.83207238 65.85051749 71.59472656 61.67553711 C75.01765995 53.56353173 78.43063014 45.44815987 81.78561401 37.30776978 C83.21410193 33.84330539 84.65023808 30.38203495 86.08691406 26.92095947 C86.77108544 25.26657418 87.45147067 23.6106177 88.12792969 21.95306396 C89.07752028 19.62727302 90.04016885 17.30728224 91.00561523 14.98803711 C91.27903244 14.30834869 91.55244965 13.62866028 91.83415222 12.92837524 C93.87554572 8.07669662 96.53863942 2.87191564 101.43139648 0.42553711 C105.94399954 0.16664361 110.46040205 0.15448997 114.97949219 0.13037109 C117.22515222 0.1131806 119.46933082 0.06929711 121.71459961 0.02514648 C123.14753151 0.0150171 124.58047591 0.00650176 126.01342773 -0.00024414 C127.31513916 -0.01482666 128.61685059 -0.02940918 129.95800781 -0.04443359 C134.10074845 0.51610452 135.64936365 1.32234336 138.43139648 4.42553711 C140.42908786 9.91103637 140.71349312 14.83374 140.67431641 20.63378906 C140.67621475 21.52892715 140.6781131 22.42406525 140.68006897 23.34632874 C140.68375414 26.28558289 140.67310803 29.22458642 140.66186523 32.16381836 C140.66067245 34.21168489 140.66022048 36.25955197 140.66047668 38.30741882 C140.65891593 42.58844451 140.65065469 46.86938608 140.63720703 51.15039062 C140.62016405 56.64629264 140.61639445 62.1421028 140.61715221 67.63802814 C140.61688085 71.86123028 140.61140597 76.08441222 140.60415077 80.30760765 C140.60096305 82.33507319 140.59899646 84.36254102 140.59825706 86.39000893 C140.59609765 89.21479863 140.58736362 92.03948927 140.57666016 94.86425781 C140.57711334 95.70633789 140.57756653 96.54841797 140.57803345 97.41601562 C140.54587896 103.19657215 140.54587896 103.19657215 139.43139648 105.42553711 C135.78557961 105.45441223 132.13979185 105.47229296 128.49389648 105.48803711 C126.93251953 105.50060547 126.93251953 105.50060547 125.33959961 105.51342773 C123.85556641 105.51826172 123.85556641 105.51826172 122.34155273 105.52319336 C120.96688843 105.53104858 120.96688843 105.53104858 119.56445312 105.5390625 C117.43139648 105.42553711 117.43139648 105.42553711 116.43139648 104.42553711 C116.30639496 101.90104641 116.24536111 99.40254094 116.22607422 96.87646484 C116.21617462 96.0862796 116.20627502 95.29609436 116.19607544 94.48196411 C116.16436801 91.85771733 116.13966669 89.23345242 116.11499023 86.60913086 C116.09442867 84.79451514 116.07343242 82.9799043 116.05201721 81.16529846 C115.99671408 76.37968891 115.94734129 71.59403555 115.89916992 66.80834961 C115.84901491 61.92875247 115.7932976 57.04921926 115.73803711 52.16967773 C115.6303548 42.58835209 115.52893235 33.00697103 115.43139648 23.42553711 C113.12382941 25.52702424 111.82260142 27.35546722 110.61303711 30.22485352 C110.28801712 30.98564209 109.96299713 31.74643066 109.62812805 32.53027344 C109.28476913 33.35422607 108.94141022 34.17817871 108.58764648 35.02709961 C108.22184982 35.88827393 107.85605316 36.74944824 107.47917175 37.63671875 C106.69613516 39.48225048 105.91634682 41.32916313 105.13949585 43.17730713 C103.92834897 46.05778503 102.70829651 48.93432758 101.48535156 51.80981445 C99.87079987 55.60652092 98.25859661 59.40420601 96.64868164 63.20288086 C93.83655166 69.83251294 90.996545 76.44905475 88.11889648 83.05053711 C87.70639648 84.01169434 87.29389648 84.97285156 86.86889648 85.96313477 C79.78598613 102.16146838 79.78598613 102.16146838 72.43139648 105.42553711 C68.39511047 105.95531362 64.43387283 105.93881238 60.36889648 105.86303711 C59.29317383 105.87012695 58.21745117 105.8772168 57.10913086 105.88452148 C51.54552716 105.83968153 48.08900638 105.71557672 43.43139648 102.42553711 C38.7630054 97.67002209 36.2961985 92.4150637 33.61889648 86.36303711 C33.16313232 85.35168701 32.70736816 84.34033691 32.23779297 83.29833984 C26.00495167 69.38170668 19.99560744 55.3626917 13.98936462 41.34709167 C12.35826648 37.54735534 10.68557548 33.77289554 8.95874023 30.01538086 C7.43139648 26.42553711 7.43139648 26.42553711 7.43139648 23.42553711 C6.44139648 23.42553711 5.45139648 23.42553711 4.43139648 23.42553711 C4.42108902 24.43809067 4.41078156 25.45064423 4.40016174 26.49388123 C4.30259913 36.01497715 4.19988177 45.53600521 4.09205723 55.05699062 C4.03678483 59.95235835 3.98335807 64.84773201 3.93408203 69.74316406 C3.88650197 74.46346987 3.83416174 79.18370065 3.77845573 83.90391731 C3.75800327 85.70890508 3.73929508 87.51391345 3.72232246 89.3189373 C3.69834219 91.83818927 3.66827937 94.35729809 3.63671875 96.87646484 C3.63096329 97.63027939 3.62520782 98.38409393 3.61927795 99.16075134 C3.54544865 104.31148495 3.54544865 104.31148495 2.43139648 105.42553711 C0.79666767 105.51254053 -0.84174407 105.53254773 -2.47875977 105.52319336 C-3.46811523 105.5199707 -4.4574707 105.51674805 -5.47680664 105.51342773 C-6.51772461 105.50504883 -7.55864258 105.49666992 -8.63110352 105.48803711 C-9.67588867 105.48352539 -10.72067383 105.47901367 -11.79711914 105.47436523 C-14.38767011 105.46253623 -16.9781091 105.446054 -19.56860352 105.42553711 C-19.63809511 92.73431282 -19.69141063 80.04313376 -19.72404003 67.351758 C-19.73970001 61.45872086 -19.76094462 55.56581382 -19.79492188 49.67285156 C-19.82750307 43.98647468 -19.84545403 38.30022301 -19.85323524 32.61375999 C-19.85878095 30.44361589 -19.86961025 28.27347868 -19.88579369 26.10338783 C-19.90755116 23.06519351 -19.9105711 20.02751743 -19.90917969 16.98925781 C-19.92535843 15.64166382 -19.92535843 15.64166382 -19.94186401 14.2668457 C-19.91824472 9.50483286 -19.7192232 6.25886752 -16.56860352 2.42553711 C-11.63761993 -0.86178528 -5.77563906 0.01458975 0 0 Z " fill="#F2F2F2" transform="translate(311.568603515625,23.574462890625)"/>
<path d="M0 0 C1.21236328 -0.020625 2.42472656 -0.04125 3.67382812 -0.0625 C14.75441605 -0.11003067 24.63485078 1.75061374 34.5 6.875 C35.51332397 7.39441162 35.51332397 7.39441162 36.54711914 7.92431641 C54.64420796 17.53738676 68.42818575 34.645356 74.4375 54.25 C80.21533027 73.8212705 77.97612121 97.08661477 68.6875 115.0625 C58.36460846 133.77888265 42.48676567 147.24031034 22.05859375 153.55859375 C14.95554074 155.43227539 8.19598328 155.46954349 0.875 155.5 C-0.33736328 155.520625 -1.54972656 155.54125 -2.79882812 155.5625 C-13.87941605 155.61003067 -23.75985078 153.74938626 -33.625 148.625 C-34.30054932 148.27872559 -34.97609863 147.93245117 -35.67211914 147.57568359 C-53.76920796 137.96261324 -67.55318575 120.854644 -73.5625 101.25 C-79.34033027 81.6787295 -77.10112121 58.41338523 -67.8125 40.4375 C-57.48960846 21.72111735 -41.61176567 8.25968966 -21.18359375 1.94140625 C-14.08054074 0.06772461 -7.32098328 0.03045651 0 0 Z M-42.5625 40.25 C-53.64124411 53.98244664 -56.67387591 69.01769823 -55.5625 86.25 C-53.32006106 101.75284557 -44.84629726 114.391358 -33.0390625 124.43359375 C-20.75030089 133.44664446 -6.58052839 136.82796804 8.4375 135.25 C24.99442718 132.22566965 38.18594453 123.10865191 47.875 109.375 C56.16573389 96.20836319 58.14266376 81.03845494 55.94140625 65.8203125 C52.52079069 50.93966855 43.74438886 38.27634593 31.4375 29.25 C5.70933432 13.7073684 -22.10102479 18.59570337 -42.5625 40.25 Z " fill="#F2F2F2" transform="translate(679.5625,1.75)"/>
<path d="M0 0 C0.96919373 -0.0065712 1.93838745 -0.0131424 2.93695068 -0.01991272 C6.1624763 -0.03971069 9.38795506 -0.05132673 12.61352539 -0.0612793 C13.71441561 -0.06535482 14.81530582 -0.06943035 15.94955635 -0.07362938 C21.78358907 -0.09452427 27.61759807 -0.10880747 33.45166016 -0.11816406 C39.46723688 -0.12919643 45.48244041 -0.16355002 51.4978857 -0.20333576 C56.12975224 -0.22954874 60.76153086 -0.2378604 65.39346504 -0.24144554 C67.60972152 -0.24630449 69.82597425 -0.25789863 72.04215813 -0.27648354 C75.1560042 -0.30095915 78.2688987 -0.29989358 81.3828125 -0.29296875 C82.28971329 -0.30577881 83.19661407 -0.31858887 84.1309967 -0.33178711 C91.91079446 -0.26912669 98.82703497 1.54382833 104.71118164 6.80200195 C110.60984655 16.45436271 111.31308758 28.03376765 109.23461914 39.02856445 C107.88605174 43.45957162 105.97213013 46.75797081 102.77368164 50.17700195 C104.09176225 52.94803653 105.59208576 55.40717387 107.33618164 57.92700195 C109.83798421 61.91516958 110.65278725 65.49666206 110.77368164 70.17700195 C110.81235352 70.93754883 110.85102539 71.6980957 110.89086914 72.48168945 C111.15664749 81.72486982 110.59175526 91.67474912 104.77368164 99.17700195 C99.64086425 103.22200002 94.98750624 105.30067529 88.42707825 105.3039856 C87.13363243 105.30821533 87.13363243 105.30821533 85.8140564 105.31253052 C84.87623322 105.31050629 83.93841003 105.30848206 82.97216797 105.30639648 C81.48140495 105.30902496 81.48140495 105.30902496 79.96052551 105.31170654 C76.67557022 105.31610802 73.39066873 105.31319371 70.10571289 105.30981445 C67.82696014 105.31048782 65.54820746 105.31145812 63.26945496 105.31271362 C58.49554764 105.31418815 53.72165904 105.31204328 48.94775391 105.30737305 C42.81382419 105.30166621 36.67993814 105.30496235 30.54601002 105.31094551 C25.84245979 105.31454945 21.13892002 105.31341348 16.43536949 105.31081772 C14.17262454 105.31014849 11.90987865 105.31097673 9.64713478 105.31329727 C6.49373463 105.31582211 3.34040648 105.31198604 0.18701172 105.30639648 C-1.22883209 105.30943283 -1.22883209 105.30943283 -2.67327881 105.31253052 C-9.11205404 105.29126627 -9.11205404 105.29126627 -10.22631836 104.17700195 C-10.32023132 102.27456433 -10.34375494 100.36861737 -10.33984375 98.46386719 C-10.33976822 97.24267685 -10.33969269 96.02148651 -10.33961487 94.76329041 C-10.33450747 93.4207251 -10.32929147 92.0781602 -10.32397461 90.7355957 C-10.32211035 89.36939038 -10.32068649 88.00318438 -10.31968689 86.63697815 C-10.3158623 83.034985 -10.30603253 79.43303195 -10.29498291 75.83105469 C-10.28476752 72.1579645 -10.280189 68.48486786 -10.27514648 64.81176758 C-10.2644102 57.60016072 -10.2473345 50.38858695 -10.22631836 43.17700195 C3.3322581 42.5375355 16.87609802 42.10855564 30.4484787 42.01607895 C32.61600381 42.00117681 34.78349079 41.98352545 36.95098877 41.96511841 C48.86589511 41.86605595 48.86589511 41.86605595 54.7019043 41.85107422 C58.38906276 41.84101083 62.07563506 41.8118103 65.7625618 41.76975441 C67.14917208 41.75749961 68.53586469 41.75231302 69.92252731 41.75455284 C71.83961021 41.75689968 73.75666994 41.73258334 75.67358398 41.70703125 C76.75876312 41.70116501 77.84394226 41.69529877 78.96200562 41.68925476 C82.43626701 41.05628704 83.62371866 39.92461935 85.77368164 37.17700195 C86.32622757 34.96314735 86.32622757 34.96314735 86.14868164 32.67700195 C86.1293457 31.5477832 86.1293457 31.5477832 86.10961914 30.39575195 C85.70371564 27.71490095 85.4889048 26.31876208 83.77368164 24.17700195 C78.07896106 22.41605823 72.9034523 21.87468163 66.97094727 21.8581543 C65.71098434 21.84308586 65.71098434 21.84308586 64.42556763 21.82771301 C61.67702862 21.79707108 58.92858615 21.77989916 56.17993164 21.76293945 C54.26321595 21.7442125 52.34650836 21.72463796 50.42980957 21.70425415 C45.4059326 21.65308832 40.38202895 21.61337966 35.35803223 21.57611084 C30.22307824 21.53597337 25.08823376 21.48492562 19.95336914 21.43481445 C9.89355041 21.33823942 -0.16633038 21.25377605 -10.22631836 21.17700195 C-10.25519982 17.86452009 -10.27307635 14.55207028 -10.28881836 11.23950195 C-10.29719727 10.29397461 -10.30557617 9.34844727 -10.31420898 8.37426758 C-10.31743164 7.47514648 -10.3206543 6.57602539 -10.32397461 5.6496582 C-10.32921143 4.81700439 -10.33444824 3.98435059 -10.33984375 3.12646484 C-10.05032597 -1.84514696 -3.76720313 0.01094956 0 0 Z M12.77368164 61.17700195 C12.77368164 68.76700195 12.77368164 76.35700195 12.77368164 84.17700195 C20.8496981 84.222318 28.92561448 84.25895542 37.00172424 84.2806263 C40.75241854 84.29103104 44.50302078 84.3051292 48.25366211 84.32788086 C51.87818294 84.34972804 55.50261563 84.36159543 59.12719727 84.36675644 C60.50497829 84.370431 61.88275489 84.37760612 63.26049805 84.38846207 C73.68888595 84.48329602 73.68888595 84.48329602 83.77368164 82.17700195 C86.7639464 79.18673719 87.03096684 76.25461063 87.27368164 72.17700195 C87.1419304 68.49345696 86.85638985 67.30364889 84.77368164 64.11450195 C77.74964293 59.57814362 67.71020131 61.04716668 59.64868164 61.0793457 C58.292481 61.08121415 56.93627968 61.08263604 55.58007812 61.08363342 C52.03572681 61.08742499 48.49141743 61.09722601 44.94708252 61.1083374 C41.32027758 61.11862433 37.69346576 61.12314655 34.06665039 61.12817383 C26.9689755 61.13885177 19.87133574 61.15642078 12.77368164 61.17700195 Z " fill="#F2F2F2" transform="translate(481.226318359375,23.822998046875)"/>
<path d="M0 0 C0.88155762 -0.0049649 1.76311523 -0.00992981 2.67138672 -0.01504517 C5.59929172 -0.02969422 8.52714243 -0.03647575 11.45507812 -0.04199219 C13.49092612 -0.04774439 15.5267741 -0.05350211 17.56262207 -0.05926514 C21.8399277 -0.06978497 26.1172145 -0.07562021 30.39453125 -0.07910156 C35.85736664 -0.08456764 41.31995042 -0.10855101 46.78270721 -0.13707352 C50.99337469 -0.15576917 55.20398264 -0.16090933 59.41468811 -0.16243744 C61.42718369 -0.16545232 63.43967851 -0.17344123 65.45213318 -0.18662262 C68.28077813 -0.20381693 71.10882295 -0.20176965 73.9375 -0.1953125 C74.7586731 -0.20452728 75.57984619 -0.21374207 76.42590332 -0.22323608 C85.06608517 -0.1619354 93.04020082 1.88286681 99.79882812 7.44238281 C107.07834692 14.85670751 107.57648873 25.82101986 107.73632812 35.66113281 C107.57558921 45.55662222 107.00843272 56.38158744 99.81054688 63.91503906 C95.53717767 67.71257272 92.35950659 70.16113281 86.48632812 70.16113281 C87.87893696 71.99698735 89.27501841 73.83000702 90.67382812 75.66113281 C91.11073975 76.23484619 91.54765137 76.80855957 91.99780273 77.3996582 C94.59799844 80.78828574 97.25819387 84.10876657 100.00976562 87.37597656 C100.59733643 88.07851562 101.18490723 88.78105469 101.7902832 89.50488281 C102.94442599 90.87902255 104.10807515 92.24524495 105.28198242 93.60253906 C108.42578764 97.36008276 110.3553716 100.05382849 110.48632812 105.16113281 C107.94068558 107.70677535 101.15190705 106.49264743 97.73632812 106.53613281 C96.63804688 106.57351562 95.53976563 106.61089844 94.40820312 106.64941406 C86.29165284 106.7380657 86.29165284 106.7380657 82.58007812 104.07910156 C81.88914062 103.11617188 81.19820313 102.15324219 80.48632812 101.16113281 C79.55896 100.04115229 78.62633452 98.9255113 77.68945312 97.81347656 C76.70190318 96.5777259 75.71757533 95.33939408 74.73632812 94.09863281 C74.02476563 93.21014648 74.02476563 93.21014648 73.29882812 92.30371094 C72.80898437 91.68818359 72.31914063 91.07265625 71.81445312 90.43847656 C71.2748999 89.78959473 70.73534668 89.14071289 70.17944336 88.47216797 C68.48632812 86.16113281 68.48632812 86.16113281 66.93579102 83.03369141 C64.90316368 79.39112376 63.07495863 76.34830588 59.48632812 74.16113281 C51.73615092 72.02103448 43.37998155 72.7123613 35.42382812 72.91113281 C33.20054361 72.92311817 30.97722286 72.92968268 28.75390625 72.93066406 C23.32938551 72.94481146 17.90912651 73.02653132 12.48632812 73.16113281 C12.49418335 74.60734009 12.49418335 74.60734009 12.50219727 76.08276367 C12.52024931 79.64785846 12.53176087 83.21294917 12.54125977 86.77807617 C12.54629952 88.32333047 12.55313132 89.86857998 12.56176758 91.41381836 C12.57384889 93.6303831 12.57955985 95.846885 12.58398438 98.06347656 C12.58914566 98.75827621 12.59430695 99.45307587 12.59962463 100.16893005 C12.59982089 101.83342611 12.54821941 103.4977878 12.48632812 105.16113281 C10.86432298 106.78313796 9.06609782 106.29104031 6.83007812 106.29394531 C5.42048828 106.29587891 5.42048828 106.29587891 3.98242188 106.29785156 C2.49935547 106.29205078 2.49935547 106.29205078 0.98632812 106.28613281 C-0.00238281 106.29 -0.99109375 106.29386719 -2.00976562 106.29785156 C-2.94949219 106.2965625 -3.88921875 106.29527344 -4.85742188 106.29394531 C-5.72560547 106.29281738 -6.59378906 106.29168945 -7.48828125 106.29052734 C-9.51367187 106.16113281 -9.51367187 106.16113281 -10.51367188 105.16113281 C-10.60707621 103.53438504 -10.63112358 101.9035923 -10.62719727 100.27416992 C-10.62712173 99.23316635 -10.6270462 98.19216278 -10.62696838 97.11961365 C-10.6218071 95.98733841 -10.61664581 94.85506317 -10.61132812 93.68847656 C-10.60991318 92.53569717 -10.60849823 91.38291779 -10.60704041 90.19520569 C-10.60142193 86.49632218 -10.58886629 82.79749817 -10.57617188 79.09863281 C-10.57115926 76.59798264 -10.56659594 74.09733153 -10.5625 71.59667969 C-10.55144649 65.45147693 -10.53469039 59.30630912 -10.51367188 53.16113281 C-8.9584507 53.15233345 -8.9584507 53.15233345 -7.37181091 53.14335632 C2.41239588 53.08607464 12.19638158 53.01328448 21.98036289 52.9254179 C27.01008557 52.88074321 32.03972779 52.84148062 37.06958008 52.81469727 C41.92618714 52.78863545 46.78248411 52.7482125 51.63889885 52.69794655 C53.48914665 52.68129733 55.33944806 52.66977096 57.18976021 52.66351891 C59.78707296 52.65385664 62.38359585 52.62577234 64.98071289 52.59350586 C66.12115555 52.59565849 66.12115555 52.59565849 67.28463745 52.59785461 C72.36785419 52.50889162 75.97167454 51.54736762 80.48632812 49.16113281 C83.75764411 43.88917729 82.97430008 37.13691247 82.48632812 31.16113281 C81.36293741 27.8471302 80.73756115 26.04747298 77.89874268 24.03652954 C74.3566581 22.75120764 70.85944198 22.85246475 67.13769531 22.84228516 C65.87860855 22.82721672 65.87860855 22.82721672 64.59408569 22.81184387 C61.82379837 22.78099051 59.05360779 22.76397075 56.28320312 22.74707031 C54.36077033 22.7283604 52.43834576 22.70878712 50.51593018 22.68838501 C45.45911507 22.63703918 40.40227334 22.59742652 35.34533691 22.5602417 C30.1839335 22.52021747 25.0226411 22.4691179 19.86132812 22.41894531 C9.73639832 22.3221569 -0.38857721 22.23878505 -10.51367188 22.16113281 C-10.51367188 15.23113281 -10.51367188 8.30113281 -10.51367188 1.16113281 C-7.23542885 -0.4779887 -3.60354464 0.00481062 0 0 Z " fill="#F2F2F2" transform="translate(20.513671875,23.8388671875)"/>
<path d="M0 0 C0.98484375 -0.00128906 1.9696875 -0.00257812 2.984375 -0.00390625 C4.02078125 -0.00003906 5.0571875 0.00382812 6.125 0.0078125 C7.67960938 0.00201172 7.67960938 0.00201172 9.265625 -0.00390625 C10.25046875 -0.00261719 11.2353125 -0.00132813 12.25 0 C13.16007812 0.00112793 14.07015625 0.00225586 15.0078125 0.00341797 C17.125 0.1328125 17.125 0.1328125 18.125 1.1328125 C18.233163 3.23754307 18.27130151 5.34589203 18.28271484 7.45336914 C18.29033592 8.44380722 18.29033592 8.44380722 18.29811096 9.45425415 C18.30883847 10.89366884 18.31744925 12.33310045 18.32423019 13.77253914 C18.33600387 16.0558406 18.35545666 18.33895158 18.37734985 20.62217712 C18.43898796 27.11613546 18.4928537 33.61007906 18.52636719 40.10424805 C18.54740522 44.07373498 18.58279121 48.04288256 18.62712479 52.01217461 C18.64122466 53.52108173 18.64999356 55.03004899 18.65317917 56.53901863 C18.25379592 69.28060383 18.25379592 69.28060383 24.0625 80.0703125 C27.9070513 82.05083893 31.41146262 82.26414167 35.70043945 82.29394531 C36.81872635 82.30355286 37.93701324 82.3131604 39.08918762 82.32305908 C40.29338852 82.32730896 41.49758942 82.33155884 42.73828125 82.3359375 C43.98119431 82.34163757 45.22410736 82.34733765 46.50468445 82.35321045 C49.13486887 82.36265652 51.76506511 82.36919287 54.39526367 82.37304688 C57.08485446 82.37743658 59.77412535 82.39134908 62.46362305 82.4140625 C66.34694132 82.4445554 70.22985652 82.45509835 74.11328125 82.4609375 C75.91047356 82.4794577 75.91047356 82.4794577 77.74397278 82.49835205 C86.40175575 82.53826564 86.40175575 82.53826564 94.125 79.1328125 C96.68466468 74.22508989 97.50443929 70.54474922 97.54150391 64.9440918 C97.55008926 64.26353226 97.55867462 63.58297272 97.56752014 62.88179016 C97.59239473 60.65676235 97.59694115 58.43218486 97.6015625 56.20703125 C97.61588602 54.65239621 97.63164545 53.09777379 97.64877319 51.54316711 C97.69047362 47.46860245 97.71557512 43.39411617 97.73626709 39.31939697 C97.77220015 32.780379 97.83301424 26.24155386 97.89475632 19.70273781 C97.91385522 17.4193133 97.92557502 15.13594068 97.93618774 12.85246277 C97.94639532 11.45982753 97.95675286 10.06719337 97.96728516 8.67456055 C97.97702866 6.84757881 97.97702866 6.84757881 97.98696899 4.98368835 C98.125 2.1328125 98.125 2.1328125 99.125 0.1328125 C106.715 0.1328125 114.305 0.1328125 122.125 0.1328125 C122.21579251 9.9478322 122.28899745 19.76256763 122.33224869 29.57791424 C122.35301938 34.13681984 122.38114174 38.69542032 122.42675781 43.25415039 C122.47059474 47.66326153 122.49421594 52.07208137 122.50450897 56.48139381 C122.5118331 58.15372101 122.52613299 59.82603439 122.54792023 61.4982357 C122.69537577 73.29755048 122.45095235 86.08225265 114.5859375 95.7109375 C104.56594952 105.46301136 91.07522596 105.59259366 77.90625 105.53125 C76.35648462 105.53327671 74.80672017 105.53619309 73.25695801 105.53994751 C70.02619244 105.54434282 66.79567757 105.53803085 63.56494141 105.52392578 C59.45317877 105.5068354 55.3420039 105.51669172 51.23026276 105.53464317 C48.03521408 105.54555717 44.84030151 105.54200006 41.64524841 105.5342598 C40.13040596 105.53227875 38.61555058 105.53464209 37.10072327 105.54169846 C25.35549848 105.5844223 13.50172582 105.04956566 4.125 97.1328125 C-4.59911324 88.07163125 -5.99661723 76.84963314 -6.00439453 64.72290039 C-6.00614685 64.03083496 -6.00789917 63.33876953 -6.00970459 62.62573242 C-6.01405856 60.36895136 -6.01121044 58.11225041 -6.0078125 55.85546875 C-6.00848686 54.27746058 -6.00945798 52.69945252 -6.01071167 51.1214447 C-6.01217941 47.83087159 -6.01006189 44.54032578 -6.00537109 41.24975586 C-5.99964137 37.02388144 -6.00297898 32.79807008 -6.00894356 28.57219791 C-6.01254619 25.3218284 -6.01141254 22.07147401 -6.00881577 18.82110405 C-6.00814736 17.26171295 -6.0089719 15.70232049 -6.01129532 14.14293098 C-6.01382048 11.97423746 -6.00998476 9.80564857 -6.00439453 7.63696289 C-6.00359894 6.40200577 -6.00280334 5.16704865 -6.00198364 3.89466858 C-5.79029585 -0.70947741 -4.14562378 0.00513799 0 0 Z " fill="#F2F2F2" transform="translate(149.875,23.8671875)"/>
<path d="M0 0 C-0.60429139 6.31312553 -2.52606874 11.87916986 -4.67578125 17.82421875 C-5.04221237 18.84804153 -5.40864349 19.87186432 -5.78617859 20.92671204 C-6.56026419 23.08203559 -7.33790873 25.23608387 -8.11889648 27.38891602 C-9.3106569 30.68240651 -10.48296512 33.98240057 -11.65429688 37.28320312 C-12.41028345 39.38063218 -13.16740638 41.47765206 -13.92578125 43.57421875 C-14.2738533 44.55968185 -14.62192535 45.54514496 -14.98054504 46.56047058 C-18.03007698 54.87258896 -21.49660353 58.02957195 -29.37109375 62.08203125 C-30.08926773 62.45929855 -30.80744171 62.83656586 -31.54737854 63.2252655 C-33.84050189 64.42801225 -36.13877268 65.62050469 -38.4375 66.8125 C-40.69554824 67.9922872 -42.95249993 69.17415275 -45.2093811 70.35617065 C-46.68612624 71.12857302 -48.1638022 71.89919848 -49.64242554 72.66799927 C-53.07815384 74.4563185 -56.49994312 76.26263841 -59.89111328 78.13427734 C-60.48867935 78.4629631 -61.08624542 78.79164886 -61.70191956 79.1302948 C-63.29779811 80.01213277 -64.88942443 80.90165388 -66.48071289 81.79174805 C-69 83 -69 83 -72 83 C-71.40544184 76.52095659 -69.34136571 70.82210674 -67.10546875 64.73828125 C-66.71684158 63.67006638 -66.32821442 62.6018515 -65.92781067 61.50126648 C-65.10671135 59.25174198 -64.28198508 57.00353843 -63.45385742 54.7565918 C-62.1896463 51.31833725 -60.9448904 47.87344635 -59.70117188 44.42773438 C-58.89961191 42.23915285 -58.09691603 40.05098695 -57.29296875 37.86328125 C-56.92302292 36.83407059 -56.55307709 35.80485992 -56.17192078 34.74446106 C-55.81507706 33.78634018 -55.45823334 32.8282193 -55.09057617 31.84106445 C-54.62877205 30.58033867 -54.62877205 30.58033867 -54.15763855 29.29414368 C-51.96668154 24.95222695 -48.75873282 22.62643685 -44.46484375 20.5546875 C-43.5816748 20.12212646 -42.69850586 19.68956543 -41.78857422 19.24389648 C-40.37729248 18.56629272 -40.37729248 18.56629272 -38.9375 17.875 C-36.95878011 16.90669377 -34.98093176 15.93660478 -33.00390625 14.96484375 C-31.50561279 14.22983643 -31.50561279 14.22983643 -29.97705078 13.47998047 C-23.19904639 10.11043294 -16.52849297 6.53047437 -9.84912109 2.97045898 C-9.23891113 2.65020752 -8.62870117 2.32995605 -8 2 C-7.34467285 1.62883057 -6.6893457 1.25766113 -6.01416016 0.87524414 C-4 0 -4 0 0 0 Z " fill="#F2F2F2" transform="translate(716,39)"/>
</svg>
